<svg xmlns="http://www.w3.org/2000/svg" width="55" height="33" viewBox="0 0 55 33">
    <g fill="#2BD9A2" fill-rule="evenodd">
        <path d="M46.415 0L41 3.457 49.583 17 55 13.543 46.416 0zM18.31 23.9l.46-.715c.202-.313.274-.69.204-1.063a1.393 1.393 0 0 0-.575-.898 1.262 1.262 0 0 0-.717-.224c-.424 0-.843.214-1.097.608l-1.336 2.07c-.013.02-.02.045-.034.065-.495.771-1.078 1.68-1.573 2.444-.021.033-.049.06-.071.091l-.343.53c-.405.629-.257 1.495.332 1.933.295.221.65.305 1 .235.351-.067.656-.276.856-.588l.233-.36c.038-.074.067-.15.112-.22l2.516-3.868c.01-.015.023-.026.033-.04M38.495 6.114c-.417.173-.87.214-1.31.119l-4.05-.87a16.172 16.172 0 0 0-6.445-.076l-3.81.723a3.962 3.962 0 0 0-2.425 1.519l-3.247 4.316c-.164.218-.235.489-.199.761.036.273.174.514.389.68a.991.991 0 0 0 1.07.092l6.9-3.686a2.224 2.224 0 0 1 2.276.109l14.844 9.831c.164.109.314.233.452.368L47 16.08 40.368 5.342l-1.873.771zM24.537 28.314a1.206 1.206 0 0 0-.985-.301 1.24 1.24 0 0 0-.803.488l-1.64 2.574a1.467 1.467 0 0 0-.058.936c.11.402.378.724.737.884.558.247 1.188.048 1.532-.485l1.452-2.247c.38-.585.275-1.397-.235-1.85M21.042 27.526l.734-1.224c.377-.627.267-1.495-.25-1.974a1.172 1.172 0 0 0-.801-.328c-.063 0-.126.005-.189.016-.34.056-.635.263-.84.577l-2.582 4.341a1.64 1.64 0 0 0-.078.942c.086.411.313.748.639.948.578.355 1.293.158 1.665-.46l.363-.606c.033-.068.058-.14.097-.205l1.187-1.953c.016-.028.038-.048.055-.074"/>
        <path d="M42.183 21.396L27.179 11.4a.991.991 0 0 0-1.021-.05l-6.974 3.748a2.244 2.244 0 0 1-2.438-.209 2.348 2.348 0 0 1-.885-1.56 2.38 2.38 0 0 1 .453-1.744l2.822-3.775-2.997-.49a2.215 2.215 0 0 1-.694-.235L13.41 6 7 16.437l3.45 4.676c.856-1.116 2.397-1.416 3.588-.66.503.318.877.766 1.098 1.293l.266-.4c.846-1.273 2.556-1.624 3.811-.784a2.842 2.842 0 0 1 1.21 1.833c.069.355.066.711.007 1.057a2.727 2.727 0 0 1 1.99.613c.983.818 1.285 2.218.791 3.374a2.47 2.47 0 0 1 1.409.578c1 .846 1.204 2.362.464 3.452l-.554.818 4.196.66a4.381 4.381 0 0 0 3.498-.973l-4.554-2.376a.662.662 0 0 1-.279-.878.628.628 0 0 1 .855-.287l4.911 2.563c.866.452 1.912.16 2.434-.682.227-.317.303-.66.239-1.002a1.21 1.21 0 0 0-.548-.81l-1.135-.713-4.586-2.569a.664.664 0 0 1-.254-.887.626.626 0 0 1 .862-.26l6.343 3.554c.926.518 2.107.215 2.688-.691a1.31 1.31 0 0 0 .174-.995 1.273 1.273 0 0 0-.578-.818l-.46-.283-6.814-4.191a.664.664 0 0 1-.218-.896c.18-.31.57-.411.872-.225l6.492 3.993.322.199 1.3.8a1.758 1.758 0 0 0 2.413-.566 1.87 1.87 0 0 0 .259-1.39 1.83 1.83 0 0 0-.78-1.168"/>
        <path d="M14.966 22.264A1.571 1.571 0 0 0 13.434 21c-.49 0-.964.237-1.26.673l-1.898 2.793c-.482.71-.316 1.696.37 2.2l.061.045c.333.243.745.338 1.157.265.364-.067.679-.266.912-.557l1.999-3.012c.202-.345.274-.746.191-1.143M0 13.808L8.614 1 14 4.192 5.386 17z"/>
    </g>
</svg>
