<svg xmlns="http://www.w3.org/2000/svg" xmlns:xlink="http://www.w3.org/1999/xlink" width="56" height="29" viewBox="0 0 56 29">
    <defs>
        <path id="a" d="M56 22V0H24v22z"/>
    </defs>
    <g fill="none" fill-rule="evenodd">
        <path fill="#2BD9A2" d="M2.243 0L.463 1.047l.66.984H.394l-.197.72.99.13-.99.785.329 1.113.859.197L0 6.089l2.179-1.047 1.187-.657 1.916 1.18 1.52 2.553v2.291l.924 1.703 1.518 2.356 1.85.652.792.395.923 1.177.645-.099-.709 1.148.592 2.355 1.257 1.112-1.522 6.091.531 1.309 1.518.392-.92-.983 1.25-2.355 2.708-2.292.198-1.047 1.321-.197L21 19.442l-2.311-1.111-.268-1.048-1.78-1.31L14 15.711l-.393.635-.535-.176-.263-.981-.79-.055.328-.929-.66-.065-.66.526-.463-.658.397-1.111 1.784-.263.327.916.465-.064v-.852l1.254-1.702 1.585-.851 2.045-.914-1.453-3.21-.66.393-.526-1.44-1.257.066-.325 2.553-.464.066-1.917-2.03.396-1.048 1.985-.391v-2.49l-4.956.526L6.67.656l-1.19 1.112zM49.288 18l-.128 1.055-.862-.325.16-.571-.942-.08-1.221 1.181-1.295.487.317 1.829-.12.363.474.285 1.92-.493.742.448.354-.204.235.74.979.285.707-.45.392-2.192-1.058-1.098zM44.19 16.768l1.237.232.573-1.719-.335-.281L44 16.024zM51 18l-.378-.976L48.888 16l-.888.1 1.14 1.438.655.056.276-.314zM49.725 6h-.24l-.036 1.698-.62 1.792-.794.804L48 11l1.45-1.179.068-1.226.482-.613-.377-.424.205-.99zM55.193 22.95L54 23.932l.77.067.69-.916.54-.643-.346-.032-.577-.409zM25.898 3.028V4l.86-.296.242-.299L26.068 2l-.548.298.034.378-.518.489-.036.512h.622zM34.032 18.617L34 19.796l.502.204.498-1.412-.126-.588z"/>
        <mask id="b" fill="#fff">
            <use xlink:href="#a"/>
        </mask>
        <path fill="#2BD9A2" d="M34.544 9.442l.172-.667-.384-.977 1.087-.594v.524l-.422.175.353.525.17 1.084-.976-.07zm-1.262-.598l-.767-.207-1.053.174-.244-.453.558-.98 1.822.946-.316.52zm21.16-5.155L56 2.824l-.433-1.208L44.097 0s-6.95.735-10.783 1.137l-3.32-.61-1.333.732-.524 1.294-.631.49-.035 1.084.35.208.735-.418.353 1.118.628-.245.421-1.12-.421-.452.386-.84.451-.56.278.044-.259.656-.295.211.107.266-.02.045.039.004.257.627.736-.208.253.296-.814.264.178.665-.53-.178-.381.98-1.368-.035-.245-.699-.314.42.106.454-.492.036-.594.803-1.085.35.281.595.452.733-1.433-.105.07 1.4 1.12.175.734-1.155 1.053-.525.452.525.629.841.458-.528-.876-.591-.036-.56.42.209.701.56-.034.557.523.666.246-.841.28.141.384.665 1.186.197-.193.648-.445.267-1.719-.44-.432.604-1.123-.734-.174-.731-2.766.473-1.428 1.727L24 13.924l1.473 1.426 2.638-.173.776 2.419-.3 1.38L29.839 22l1.428-.26 1.425-2.677.778-.605-.215-1.855 1.384-1.253.432-1.513-1.384.649-1.414-3.234.29-.05 1.384 2.721 2.682-1.597-.91-.69-.692.345-.433-1.038.304-.17.604.516 2.078.389.862 1.037.779 1.943.607-.603v-.735l1.684-1.168.606 1.298.5-.127.105 1.292.52.95-1.125-.563.823 1.165.908.866 2.16.388-1.166-.474-.868-.303-.3-1.383-.693-.78.026-.78.797.825.777-.648-.733-1.08.344-.561 1.601-.086.734-1.338-.517-1.466.648-.691.478.647.173.82.561-.3-.216-.908.476-.69.779-.13.906-2.505-.777-.562 1.08-1.037 1.427.086 1.168-.949.907-.131-1.469 1.772.043 1.554L53.32 4.94l-.044-.994 1.166-.257zM19.936 1.241L19.07 1 18 2.17l1.377 3.666.651.164.053-1.191.44-.278.025-.453.454-.873-.316-.663z" mask="url(#b)"/>
    </g>
</svg>
