<?xml version="1.0" encoding="UTF-8"?>
<svg width="104px" height="98px" viewBox="0 0 104 98" version="1.1" xmlns="http://www.w3.org/2000/svg" xmlns:xlink="http://www.w3.org/1999/xlink">
    <!-- Generator: Sketch 43.1 (39012) - http://www.bohemiancoding.com/sketch -->
    <title>Group 14</title>
    <desc>Created with Sketch.</desc>
    <defs></defs>
    <g id="Page-1" stroke="none" stroke-width="1" fill="none" fill-rule="evenodd">
        <g id="Desktop-HD-Copy-2" transform="translate(-673.000000, -251.000000)">
            <g id="Group-14" transform="translate(673.000000, 251.000000)">
                <g id="Group-13">
                    <g id="Group-12" fill-rule="nonzero" fill="#23C8C6">
                        <path d="M46.9861539,97.5713403 C20.8867924,96.688068 0,75.210282 0,48.845128 C0,22.479974 20.8867924,1.00218798 46.9861539,0.118915592 L46.9861632,1.54006013 C21.6722633,2.4227149 1.42068966,23.263792 1.42068966,48.845128 C1.42068966,74.4264639 21.6722633,95.267541 46.9861533,96.1501955 L46.9861632,97.5713407 Z M49.1171977,0.0927770153 C75.7797871,0.339414192 97.3172414,22.0724618 97.3172414,48.845128 C97.3172414,75.6177941 75.7797871,97.3508417 49.1171977,97.5974789 L49.1171977,96.1771251 C74.9944369,95.9305235 95.8965517,74.8340908 95.8965517,48.845128 C95.8965517,22.8561652 74.9944369,1.75973246 49.1171977,1.51313088 L49.1171977,0.0927770153 Z" id="Oval-Copy"></path>
                    </g>
                    <polyline id="Path-19" stroke="#FFFFFF" stroke-width="3" stroke-linecap="round" stroke-linejoin="round" points="24.862069 46.8695652 46.0596442 68.0611751 102.475359 11.661336"></polyline>
                </g>
            </g>
        </g>
    </g>
</svg>