<?xml version="1.0" encoding="UTF-8"?>
<svg width="45px" height="45px" viewBox="0 0 45 45" version="1.1" xmlns="http://www.w3.org/2000/svg" xmlns:xlink="http://www.w3.org/1999/xlink">
    <!-- Generator: Sketch 46.2 (44496) - http://www.bohemiancoding.com/sketch -->
    <title>search@1x</title>
    <desc>Created with Sketch.</desc>
    <defs></defs>
    <g id="Page-1" stroke="none" stroke-width="1" fill="none" fill-rule="evenodd">
        <g id="Desktop-HD-11/17-Copy-11" transform="translate(-636.000000, -2062.000000)" fill-rule="nonzero" fill="#A5A5A5">
            <g id="legal" transform="translate(259.000000, 2062.000000)">
                <g id="search" transform="translate(377.000000, 0.000000)">
                    <path d="M27.0459314,7.95405109 C24.4961484,5.40427939 21.1060224,4 17.5,4 C13.8939776,4 10.5038516,5.40427939 7.95406864,7.95405109 C5.40428563,10.5038228 4,13.8940535 4,17.5000599 C4,21.1060663 5.40428563,24.4961772 7.95406864,27.0459489 C10.5038516,29.5957206 13.8940974,31 17.5,31 C21.1060224,31 24.4961484,29.5957206 27.0459314,27.0459489 C29.5957144,24.4961772 31,21.1059465 31,17.5000599 C31,13.8939337 29.5957144,10.5038228 27.0459314,7.95405109 L27.0459314,7.95405109 Z M25.7752332,25.7751366 C23.5648701,27.9854898 20.6259463,29.2028674 17.5,29.2028674 C14.3740537,29.2028674 11.4351299,27.9856096 9.22476682,25.7751366 C4.66182696,21.212217 4.66182696,13.7876632 9.22476682,9.22474363 C11.4351299,7.01439037 14.3740537,5.79713258 17.5,5.79713258 C20.6259463,5.79713258 23.5648701,7.01439037 25.7752332,9.22474363 C30.338173,13.7876632 30.338173,21.212217 25.7752332,25.7751366 Z" id="Shape"></path>
                    <path d="M22.5138343,8.12193129 C22.0437954,7.88184121 21.4309784,8.00724142 21.1451565,8.40207358 C20.8593346,8.79690573 21.0086207,9.31167137 21.4786596,9.55176145 C22.1367672,9.88790988 22.7493186,10.2926714 23.2995789,10.7548894 C23.4940228,10.9183337 23.7490311,11 24.0039067,11 C24.2587823,11 24.5137907,10.9183337 24.7082345,10.7548894 C25.0972552,10.4281126 25.0972552,9.89839708 24.7082345,9.5716202 C24.0458768,9.01512888 23.3075479,8.52736222 22.5138343,8.12193129 Z" id="Shape"></path>
                    <path d="M9.8900507,12 C10.1177926,12 10.3456532,11.9050054 10.5193969,11.7148864 C12.4645191,9.58788923 15.2510641,8.594858 17.9728112,9.058411 C18.458795,9.14120686 18.9135668,8.7775799 18.9892829,8.2464146 C19.0648804,7.7152493 18.7324651,7.21769549 18.2468372,7.13489963 C14.9652889,6.57622223 11.6061256,7.77377741 9.26070454,10.3385025 C8.91309849,10.7186108 8.91309849,11.3347781 9.26070454,11.7148864 C9.43444823,11.9050054 9.6623088,12 9.8900507,12 L9.8900507,12 Z" id="Shape"></path>
                    <path d="M11.6389945,24.4259615 C11.1594978,24.0937603 10.7117768,23.69798 10.3080922,23.2494063 C10.0088282,22.9168646 9.52360982,22.9168646 9.224448,23.2494063 C8.925184,23.5819481 8.925184,24.1210086 9.224448,24.4535503 C9.71038161,24.9935191 10.2499559,25.4704764 10.8282537,25.8710251 C10.9543349,25.9584465 11.0945159,26 11.2328578,26 C11.4885962,26 11.738613,25.8577416 11.8839026,25.5988836 C12.1077631,25.2000378 11.9981317,24.6748285 11.6389945,24.4259615 L11.6389945,24.4259615 Z" id="Shape"></path>
                    <path d="M23.426247,23.2848476 C21.4729998,25.3458542 18.7775433,26.3308311 16.030582,25.9869841 C15.5249995,25.9234289 15.0663737,26.3048902 15.0065101,26.8383653 C14.9465237,27.3718405 15.3077945,27.8556387 15.813377,27.9189346 C16.2472953,27.9732808 16.6796157,28 17.1094776,28 C19.9604318,28 22.6831772,26.820077 24.7299688,24.6604949 C25.0900104,24.28059 25.0900104,23.6646227 24.7299688,23.2847179 C24.3700501,22.9050724 23.7862886,22.9050724 23.426247,23.2848476 L23.426247,23.2848476 Z" id="Shape"></path>
                    <path d="M43.9221991,38.7104351 L33.1778668,27.9660674 C32.8311571,27.6193565 32.2690114,27.6193565 31.9224201,27.9660674 L31.4926136,28.3958753 L30.4382799,27.341538 C35.5705072,20.6852574 35.0877888,11.0656582 28.9894143,4.96726363 C22.3665363,-1.65575454 11.5901253,-1.65575454 4.9672473,4.96726363 C-1.6557491,11.5901634 -1.6557491,22.3666098 4.9672473,28.9895096 C8.27868631,32.3009595 12.6285973,33.9567437 16.97839,33.9567437 C20.6390245,33.9567437 24.2996591,32.7837979 27.3414481,30.4383799 L28.3957819,31.4927172 L27.9659755,31.922525 C27.7994269,32.0889557 27.7059136,32.314809 27.7059136,32.5502505 C27.7059136,32.7856919 27.7994269,33.0115452 27.9659755,33.1779759 L38.7103078,43.9223435 C39.428822,44.6408601 40.3724785,45 41.3163718,45 C42.2600284,45 43.2039216,44.6407417 43.9224358,43.9223435 C45.3592275,42.4855471 45.3592275,40.1474682 43.9221991,38.7104351 L43.9221991,38.7104351 Z M6.22257566,27.7340588 C3.34958419,24.8610579 1.76743249,21.0413196 1.76743249,16.9784458 C1.76743249,12.915572 3.34970256,9.0957154 6.22257566,6.22283286 C9.09556712,3.34995032 12.9152928,1.76767504 16.9781532,1.76767504 C21.0410137,1.76767504 24.8609761,3.34995032 27.7338492,6.22283286 C30.6068407,9.09583377 32.1889924,12.915572 32.1889924,16.9784458 C32.1889924,21.0413196 30.6068407,24.8611762 27.7338492,27.7340588 C24.8608577,30.6069413 21.0411321,32.1892166 16.9782716,32.1892166 C12.9154112,32.1892166 9.09556712,30.6070597 6.22257566,27.7340588 Z M28.6926573,29.2788102 C28.7924444,29.1837577 28.8914028,29.0875214 28.9892959,28.9895096 C29.0871891,28.8914978 29.1835434,28.792539 29.2785956,28.69287 L30.2370485,29.6513261 L29.6511103,30.2372663 L28.6926573,29.2788102 Z M42.6667524,42.667011 C41.9219597,43.4116878 40.7104288,43.4115694 39.9657545,42.667011 L29.8491456,32.5503688 L32.5501434,29.8493621 L42.6667524,39.9660043 C43.4114266,40.710681 43.4114266,41.9223343 42.6667524,42.667011 Z" id="Shape"></path>
                </g>
            </g>
        </g>
    </g>
</svg>