<?xml version="1.0" encoding="UTF-8"?>
<svg width="45px" height="48px" viewBox="0 0 45 48" version="1.1" xmlns="http://www.w3.org/2000/svg" xmlns:xlink="http://www.w3.org/1999/xlink">
    <!-- Generator: Sketch 46.2 (44496) - http://www.bohemiancoding.com/sketch -->
    <title>megaphone@1x</title>
    <desc>Created with Sketch.</desc>
    <defs></defs>
    <g id="Page-1" stroke="none" stroke-width="1" fill="none" fill-rule="evenodd">
        <g id="Desktop-HD-11/17-Copy-11" transform="translate(-937.000000, -2060.000000)" fill-rule="nonzero" fill="#2CD9A2">
            <g id="marketing" transform="translate(937.000000, 2060.000000)">
                <g id="megaphone">
                    <path d="M36.8181818,0 C31.5040702,0 28.6363636,10.5381663 28.6363636,20.4545455 C28.6363636,30.3709246 31.5040702,40.9090909 36.8181818,40.9090909 C42.1322935,40.9090909 45,30.3709246 45,20.4545455 C45,10.5381663 42.1322935,0 36.8181818,0 Z M36.8181818,38.8636651 C33.9156705,38.8636651 30.6817942,31.3036533 30.6817942,20.4545455 C30.6817942,9.60543759 33.9156705,2.04542578 36.8181818,2.04542578 C39.7206932,2.04542578 42.9545694,9.60543759 42.9545694,20.4545455 C42.9545694,31.3036533 39.7206932,38.8636651 36.8181818,38.8636651 Z" id="Shape"></path>
                    <path d="M35.7954865,14.3181818 C35.2309411,14.3181818 34.7727273,14.776392 34.7727273,15.3409331 C34.7727273,15.9054741 35.2309411,16.3636843 35.7954865,16.3636843 C37.4871094,16.3636843 38.8636683,18.1984427 38.8636683,20.4545934 C38.8636683,22.7107441 37.4871094,24.5454066 35.7954865,24.5454066 C35.2309411,24.5454066 34.7727273,25.0036168 34.7727273,25.5681578 C34.7727273,26.1326989 35.2309411,26.5909091 35.7954865,26.5909091 C38.6162003,26.5909091 40.9090909,23.8377168 40.9090909,20.4545934 C40.9090909,17.07147 38.6162003,14.3181818 35.7954865,14.3181818 Z" id="Shape"></path>
                    <path d="M31.0485908,19.9434447 C31.0485908,13.1355014 32.4085191,6.88294477 34.6005496,3.62232485 C34.8758147,3.21548629 34.8158521,2.67449683 34.4577261,2.33277913 C34.0996,1.99106144 33.5428599,1.95034898 33.1412658,2.23104566 L19.3349278,11.8073409 L8.27959187,11.8073409 C3.71341146,11.8073409 0,15.4563977 0,19.9434447 C0,24.4304917 3.71341146,28.0796439 8.27959187,28.0796439 L19.3349278,28.0796439 L33.1411688,37.6558438 C33.3212506,37.7798881 33.5282089,37.8409091 33.7373017,37.8409091 C33.9981099,37.8409091 34.258918,37.7432755 34.457629,37.5541103 C34.8157551,37.2143949 34.8757177,36.6734054 34.6004525,36.2645646 C32.4085191,33.00404 31.0485908,26.751388 31.0485908,19.9434447 Z M20.2601758,26.2307071 C20.0863036,26.1106673 19.8793454,26.0456418 19.6640428,26.0456418 L8.27959187,26.0456418 C4.8559996,26.0456418 2.06987371,23.3078004 2.06987371,19.9435401 C2.06987371,16.5792798 4.8559996,13.8414383 8.27959187,13.8414383 L19.6640428,13.8414383 C19.8793454,13.8414383 20.0863036,13.7763175 20.2601758,13.6542754 L31.0961339,6.13848836 C29.7568724,9.82215555 28.97862,14.7526537 28.97862,19.9434447 C28.97862,25.1342357 29.7568724,30.0648292 31.0961339,33.7463988 L20.2601758,26.2307071 Z" id="Shape"></path>
                    <path d="M18.6230423,36.8714408 L20.4350665,27.8141514 C20.4944095,27.5134691 20.4166596,27.2025274 20.2223327,26.9653182 C20.0280058,26.728109 19.7356046,26.5909993 19.4308364,26.5909993 C15.6554105,26.5909993 14.3178431,23.2855067 14.3178431,20.4546244 C14.3178431,17.6237421 15.6554105,14.3182495 19.4308364,14.3182495 C19.9953144,14.3182495 20.4534734,13.8600349 20.4534734,13.2954884 C20.4534734,12.7309419 19.9953144,12.2727273 19.4308364,12.2727273 C15.1481665,12.2727273 12.2725691,15.5598107 12.2725691,20.4545285 C12.2725691,24.8645686 14.608231,27.9695743 18.2016012,28.5402572 L16.6165953,36.4684536 C16.4038615,37.5361828 16.7351856,38.6345939 17.5103841,39.4097907 C18.0891466,39.9907328 18.4081994,40.7597931 18.4081994,41.5800539 L18.4081994,42.2816141 C18.4081994,43.1018749 18.0891466,43.8729487 17.5103841,44.4538908 L17.25681,44.7074957 L13.6388014,42.2959004 C12.7839355,41.7252175 12.2725691,40.7699565 12.2725691,39.7431684 L12.2725691,31.7045173 C12.2725691,31.4325033 12.164141,31.1726661 11.9719232,30.980425 L7.8814711,26.8894764 C7.48265513,26.4906121 6.83429158,26.4906121 6.43547561,26.8894764 C6.03665964,27.2883408 6.03665964,27.9367831 6.43547561,28.3356474 L10.2272951,32.1279271 L10.2272951,39.7431684 C10.2272951,41.4572305 11.0781345,43.0465516 12.5036139,43.9976897 L16.8189753,46.873636 C16.9927862,46.9902272 17.1891263,47.0454545 17.3854665,47.0454545 C17.6492986,47.0454545 17.9111175,46.9431497 18.1094709,46.7467857 L18.9561879,45.8999659 C19.9216868,44.9346375 20.4534734,43.6500257 20.4534734,42.2837235 L20.4534734,41.5821633 C20.4534734,40.2157651 19.9216868,38.9312493 18.9543663,37.9617021 C18.6659917,37.6753059 18.5432791,37.2661823 18.6230423,36.8714408 Z" id="Shape"></path>
                </g>
            </g>
        </g>
    </g>
</svg>