<?xml version="1.0" encoding="UTF-8"?>
<svg width="32px" height="32px" viewBox="0 0 32 32" version="1.1" xmlns="http://www.w3.org/2000/svg" xmlns:xlink="http://www.w3.org/1999/xlink">
    <!-- Generator: Sketch 46.2 (44496) - http://www.bohemiancoding.com/sketch -->
    <title>Group 2</title>
    <desc>Created with Sketch.</desc>
    <defs></defs>
    <g id="Page-1" stroke="none" stroke-width="1" fill="none" fill-rule="evenodd">
        <g id="Desktop-HD-11/17-Copy-11" transform="translate(-589.000000, -1768.000000)">
            <g id="Group-24" transform="translate(350.000000, 1480.000000)">
                <g id="Group-2" transform="translate(239.000000, 288.000000)">
                    <circle id="Oval-4" fill="#FFFFFF" cx="16" cy="17" r="10"></circle>
                    <path d="M17,15 L17,9.97826087 C17,9.43798231 16.5522847,9 16,9 C15.4477153,9 15,9.43798231 15,9.97826087 L15,15 L9.97826087,15 C9.43798231,15 9,15.4477153 9,16 C9,16.5522847 9.43798231,17 9.97826087,17 L15,17 L15,23.0217391 C15,23.5620177 15.4477153,24 16,24 C16.5522847,24 17,23.5620177 17,23.0217391 L17,17 L23.0217391,17 C23.5620177,17 24,16.5522847 24,16 C24,15.4477153 23.5620177,15 23.0217391,15 L17,15 Z M16,32 C7.163444,32 0,24.836556 0,16 C0,7.163444 7.163444,0 16,0 C24.836556,0 32,7.163444 32,16 C32,24.836556 24.836556,32 16,32 Z" id="Combined-Shape-Copy" fill="#50E3C2"></path>
                </g>
            </g>
        </g>
    </g>
</svg>