<?xml version="1.0" encoding="UTF-8"?>
<svg width="50px" height="50px" viewBox="0 0 50 50" version="1.1" xmlns="http://www.w3.org/2000/svg" xmlns:xlink="http://www.w3.org/1999/xlink">
    <!-- Generator: Sketch 46.2 (44496) - http://www.bohemiancoding.com/sketch -->
    <title>settings@1x</title>
    <desc>Created with Sketch.</desc>
    <defs></defs>
    <g id="Page-1" stroke="none" stroke-width="1" fill="none" fill-rule="evenodd">
        <g id="Desktop-HD-11/17-Copy-11" transform="translate(-331.000000, -2059.000000)" fill-rule="nonzero" fill="#2CD9A2">
            <g id="settings" transform="translate(331.000000, 2059.000000)">
                <path d="M25.4735234,49.7788066 L27.9684318,48.7397119 C29.302444,48.1841564 29.9338086,46.6306584 29.3839104,45.2932099 L28.7423625,43.7294239 C29.9949084,42.7932099 31.0845214,41.6820988 32.0213849,40.4166667 L33.5692464,41.0648148 C34.2107943,41.3323045 34.9236253,41.3323045 35.5651731,41.0648148 C36.206721,40.7973251 36.7158859,40.2829218 36.9806517,39.6347737 L38.0193483,37.1141975 C38.5692464,35.7664609 37.9378819,34.223251 36.6038697,33.6676955 L34.3126273,32.7109053 C33.793279,32.494856 33.212831,32.7417695 32.9989817,33.2664609 C32.7851324,33.7911523 33.0295316,34.377572 33.5488798,34.5936214 L35.8401222,35.5504115 C36.1456212,35.6738683 36.2881874,36.0339506 36.1659878,36.3425926 L35.1272912,38.8631687 C35.0661914,39.0072016 34.9541752,39.1306584 34.8014257,39.1923868 C34.6588595,39.2541152 34.4959267,39.2541152 34.3431772,39.1923868 L32.0519348,38.2355967 C31.6038697,38.0504115 31.0947047,38.2047325 30.8299389,38.6059671 C29.8014257,40.1697531 28.4979633,41.4866255 26.9501018,42.5257202 C26.5529532,42.7932099 26.3900204,43.3179012 26.5733198,43.7602881 L27.5203666,46.0751029 C27.6425662,46.3837449 27.5,46.7335391 27.194501,46.867284 L24.6995927,47.9063786 C24.5570265,47.968107 24.3940937,47.968107 24.2413442,47.9063786 C24.098778,47.8446502 23.9765784,47.7314815 23.9154786,47.5771605 L22.9684318,45.2623457 C22.7851324,44.8096708 22.3167006,44.5524691 21.8380855,44.6553498 C20.0254582,45.0257202 18.1720978,45.0154321 16.3594705,44.6553498 C15.8910387,44.5627572 15.4124236,44.8199588 15.2291242,45.2623457 L14.2820774,47.5771605 C14.1598778,47.8858025 13.8034623,48.0298354 13.4979633,47.9063786 L11.003055,46.8569959 C10.8604888,46.7952675 10.7382892,46.6820988 10.6771894,46.5277778 C10.6160896,46.3837449 10.6160896,46.2191358 10.6771894,46.0648148 L11.6242363,43.75 C11.8075356,43.2973251 11.6547862,42.7829218 11.2576375,42.5154321 C9.70977597,41.4763374 8.40631365,40.159465 7.37780041,38.595679 C7.11303462,38.1944444 6.59368635,38.0298354 6.15580448,38.2150206 L3.86456212,39.1718107 C3.71181263,39.2335391 3.55906314,39.2335391 3.40631365,39.1718107 C3.26374745,39.1100823 3.14154786,38.9969136 3.08044807,38.8425926 L2.05193483,36.3220165 C1.99083503,36.1779835 1.99083503,36.0133745 2.05193483,35.8590535 C2.11303462,35.7150206 2.22505092,35.5915638 2.37780041,35.5298354 L4.66904277,34.5730453 C5.11710794,34.3878601 5.36150713,33.9146091 5.26985743,33.43107 C4.90325866,31.5997942 4.91344196,29.7273663 5.26985743,27.8960905 C5.36150713,27.4228395 5.10692464,26.9393004 4.66904277,26.7541152 L2.37780041,25.7973251 C2.07230143,25.6738683 1.92973523,25.313786 2.05193483,25.005144 L3.09063136,22.4845679 C3.21283096,22.1759259 3.56924644,22.031893 3.87474542,22.1553498 L6.16598778,23.1121399 C6.61405295,23.2973251 7.12321792,23.1430041 7.38798371,22.7417695 C8.41649695,21.1779835 9.71995927,19.8611111 11.2678208,18.8220165 C11.6649695,18.5545267 11.8279022,18.0298354 11.6446029,17.5874486 L10.697556,15.2726337 C10.6364562,15.1286008 10.6364562,14.9639918 10.697556,14.8096708 C10.7586558,14.6656379 10.8706721,14.5421811 11.0234216,14.4804527 L13.5183299,13.441358 C13.6608961,13.3796296 13.8238289,13.3796296 13.9765784,13.441358 C14.1191446,13.5030864 14.2413442,13.6162551 14.302444,13.7705761 L15.2494908,16.0853909 C15.4633401,16.6100823 16.0539715,16.8569959 16.5631365,16.6409465 C17.0824847,16.4248971 17.3268839,15.8281893 17.1130346,15.313786 L16.1659878,12.9989712 C15.901222,12.350823 15.392057,11.8364198 14.7505092,11.56893 C14.4246436,11.4351852 14.0885947,11.3631687 13.7525458,11.3631687 C13.4164969,11.3631687 13.0702648,11.4351852 12.7545825,11.56893 L10.2596741,12.6080247 C9.61812627,12.8755144 9.1089613,13.3899177 8.84419552,14.0380658 C8.57942974,14.686214 8.57942974,15.4063786 8.84419552,16.0545267 L9.48574338,17.6183128 C8.23319756,18.5545267 7.14358452,19.6656379 6.20672098,20.93107 L4.65885947,20.2829218 C3.32484725,19.7273663 1.79735234,20.3652263 1.24745418,21.712963 L0.198574338,24.2335391 C-0.351323829,25.5812757 0.280040733,27.1244856 1.61405295,27.6800412 L3.16191446,28.3281893 C2.93788187,29.8816872 2.93788187,31.4557613 3.16191446,33.0092593 L1.61405295,33.6574074 C0.972505092,33.9248971 0.463340122,34.4393004 0.198574338,35.0874486 C-0.066191446,35.7355967 -0.066191446,36.4557613 0.198574338,37.1039095 L1.22708758,39.6244856 C1.49185336,40.2726337 2.00101833,40.787037 2.64256619,41.0545267 C3.28411405,41.3220165 3.99694501,41.3220165 4.63849287,41.0545267 L6.18635438,40.4063786 C7.11303462,41.6718107 8.21283096,42.7726337 9.46537678,43.7191358 L8.82382892,45.2829218 C8.55906314,45.93107 8.55906314,46.6512346 8.82382892,47.2993827 C9.0885947,47.9475309 9.59775967,48.4619342 10.2393075,48.7294239 L12.7342159,49.7788066 C14.0682281,50.3343621 15.595723,49.6965021 16.1456212,48.3487654 L16.787169,46.7849794 C18.3248473,47.0113169 19.8828921,47.0113169 21.4205703,46.7849794 L22.0621181,48.3487654 C22.3268839,48.9969136 22.8360489,49.5113169 23.4775967,49.7788066 C24.1191446,50.0462963 24.8319756,50.0462963 25.4735234,49.7788066 Z" id="Shape"></path>
                <path d="M10.9114053,30.7355967 C10.9419552,35.2829218 14.6181263,38.9557613 19.1089613,38.9557613 C19.1293279,38.9557613 19.1496945,38.9557613 19.1700611,38.9557613 C21.3594705,38.9351852 23.4164969,38.0606996 24.9541752,36.4866255 C26.4918534,34.9125514 27.3268839,32.8240741 27.3167006,30.6121399 C27.3167006,30.0565844 26.8584521,29.6039095 26.308554,29.6039095 L26.2983707,29.6039095 C25.7382892,29.6039095 25.290224,30.0668724 25.3004073,30.632716 C25.3105906,32.2993827 24.6792261,33.8734568 23.5183299,35.0668724 C22.3574338,36.2602881 20.8095723,36.9187243 19.1598778,36.9290123 C19.1496945,36.9290123 19.1293279,36.9290123 19.1191446,36.9290123 C15.7281059,36.9290123 12.9582485,34.1512346 12.9378819,30.7253086 C12.9175153,27.2788066 15.6670061,24.4598765 19.0784114,24.4290123 C19.6384929,24.4290123 20.086558,23.9660494 20.0763747,23.4002058 C20.0763747,22.8446502 19.6181263,22.3919753 19.0682281,22.3919753 C19.0682281,22.3919753 19.0682281,22.3919753 19.0580448,22.3919753 C14.5264766,22.4228395 10.8808554,26.1676955 10.9114053,30.7355967 Z" id="Shape"></path>
                <path d="M36.1252546,0.0257201646 L34.1598778,0.0257201646 C32.9582485,0.0257201646 31.9806517,1.01337449 31.9806517,2.22736626 L31.9806517,3.24588477 C31.003055,3.51337449 30.0661914,3.90432099 29.1904277,4.41872428 L28.4775967,3.69855967 C28.0702648,3.28703704 27.5203666,3.05041152 26.9399185,3.05041152 C26.3594705,3.05041152 25.8095723,3.27674897 25.4022403,3.69855967 L24.0173116,5.09773663 C23.6099796,5.50925926 23.3757637,6.06481481 23.3757637,6.65123457 C23.3757637,7.23765432 23.5997963,7.79320988 24.0173116,8.20473251 L24.7301426,8.92489712 C24.2209776,9.80967078 23.8340122,10.7561728 23.5692464,11.7438272 L22.5610998,11.7438272 C21.3594705,11.7438272 20.3818737,12.7314815 20.3818737,13.9454733 L20.3818737,15.93107 C20.3818737,17.1450617 21.3594705,18.132716 22.5610998,18.132716 L23.5692464,18.132716 C23.8340122,19.1203704 24.2209776,20.0668724 24.7301426,20.9516461 L24.0173116,21.6718107 C23.6099796,22.0833333 23.3757637,22.6388889 23.3757637,23.2253086 C23.3757637,23.8117284 23.5997963,24.367284 24.0173116,24.7788066 L25.4022403,26.1779835 C25.8095723,26.5895062 26.3594705,26.8261317 26.9399185,26.8261317 C27.5203666,26.8261317 28.0702648,26.5997942 28.4775967,26.1779835 L29.1904277,25.4578189 C30.0661914,25.9722222 31.003055,26.3631687 31.9806517,26.6306584 L31.9806517,27.649177 C31.9806517,28.8631687 32.9582485,29.850823 34.1598778,29.850823 L36.1252546,29.850823 C37.3268839,29.850823 38.3044807,28.8631687 38.3044807,27.649177 L38.3044807,26.6306584 C39.2820774,26.3631687 40.2189409,25.9722222 41.0947047,25.4578189 L41.8075356,26.1779835 C42.2148676,26.5895062 42.7647658,26.8261317 43.3452138,26.8261317 C43.9256619,26.8261317 44.4755601,26.5997942 44.8828921,26.1779835 L46.2678208,24.7788066 C47.1130346,23.9248971 47.1130346,22.5257202 46.2678208,21.6718107 L45.5549898,20.9516461 C46.0641548,20.0668724 46.4511202,19.1203704 46.7158859,18.132716 L47.7240326,18.132716 C48.9256619,18.132716 49.9032587,17.1450617 49.9032587,15.93107 L49.9032587,13.9454733 C49.9032587,12.7314815 48.9256619,11.7438272 47.7240326,11.7438272 L46.7158859,11.7438272 C46.4511202,10.7561728 46.0641548,9.80967078 45.5549898,8.92489712 L46.2678208,8.20473251 C47.1130346,7.35082305 47.1130346,5.95164609 46.2678208,5.09773663 L44.8828921,3.69855967 C44.4755601,3.28703704 43.9256619,3.05041152 43.3452138,3.05041152 C42.7647658,3.05041152 42.2148676,3.27674897 41.8075356,3.69855967 L41.0947047,4.41872428 C40.2189409,3.90432099 39.2820774,3.51337449 38.3044807,3.24588477 L38.3044807,2.22736626 C38.2942974,1.01337449 37.3167006,0.0257201646 36.1252546,0.0257201646 Z M40.6771894,6.54835391 C40.8503055,6.66152263 41.0437882,6.72325103 41.2372709,6.72325103 C41.5020367,6.72325103 41.7566191,6.62037037 41.9501018,6.42489712 L43.2230143,5.13888889 C43.2637475,5.09773663 43.3044807,5.08744856 43.3350305,5.08744856 C43.3655804,5.08744856 43.4063136,5.09773663 43.4470468,5.13888889 L44.8319756,6.53806584 C44.8930754,6.59979424 44.8930754,6.7026749 44.8319756,6.76440329 L43.5590631,8.05041152 C43.2230143,8.3899177 43.1619145,8.93518519 43.4368635,9.33641975 C44.1700611,10.4372428 44.6690428,11.6615226 44.9236253,12.9578189 C45.0152749,13.43107 45.4327902,13.7808642 45.9114053,13.7808642 L47.7138493,13.7808642 C47.805499,13.7808642 47.8767821,13.8528807 47.8767821,13.9454733 L47.8767821,15.93107 C47.8767821,16.0236626 47.805499,16.095679 47.7138493,16.095679 L45.9114053,16.095679 C45.4327902,16.095679 45.0152749,16.4351852 44.9236253,16.9187243 C44.6690428,18.2150206 44.1700611,19.4393004 43.4368635,20.5401235 C43.1720978,20.941358 43.2230143,21.4866255 43.5590631,21.8261317 L44.8319756,23.1121399 C44.8930754,23.1738683 44.8930754,23.276749 44.8319756,23.3384774 L43.4470468,24.7376543 C43.4063136,24.7788066 43.3655804,24.7890947 43.3350305,24.7890947 C43.3044807,24.7890947 43.2637475,24.7788066 43.2230143,24.7376543 L41.9501018,23.43107 C41.614053,23.0915638 41.0743381,23.0298354 40.6771894,23.3076132 C39.5875764,24.0483539 38.3757637,24.5524691 37.092668,24.8096708 C36.6242363,24.9022634 36.2780041,25.3240741 36.2780041,25.8076132 L36.2780041,27.6286008 C36.2780041,27.7211934 36.206721,27.7932099 36.1150713,27.7932099 L34.1496945,27.7932099 C34.0580448,27.7932099 33.9867617,27.7211934 33.9867617,27.6286008 L33.9867617,25.8076132 C33.9867617,25.3240741 33.6507128,24.9022634 33.1720978,24.8096708 C31.889002,24.5524691 30.6771894,24.0483539 29.5875764,23.3076132 C29.1904277,23.0401235 28.6507128,23.0915638 28.314664,23.43107 L27.0417515,24.7170782 C27.0010183,24.7582305 26.9602851,24.7685185 26.9297352,24.7685185 C26.8991853,24.7685185 26.8584521,24.7582305 26.8177189,24.7170782 L25.4327902,23.3179012 C25.392057,23.276749 25.3818737,23.2355967 25.3818737,23.2047325 C25.3818737,23.1738683 25.392057,23.132716 25.4327902,23.0915638 L26.7057026,21.8055556 C27.0417515,21.4660494 27.1028513,20.9207819 26.8279022,20.5195473 C26.0947047,19.4187243 25.595723,18.1944444 25.3411405,16.8981481 C25.2494908,16.4248971 24.8319756,16.0751029 24.3533605,16.0751029 L22.5509165,16.0751029 C22.4592668,16.0751029 22.3879837,16.0030864 22.3879837,15.9104938 L22.3879837,13.9248971 C22.3879837,13.8323045 22.4592668,13.7602881 22.5509165,13.7602881 L24.3533605,13.7602881 C24.8319756,13.7602881 25.2494908,13.4207819 25.3411405,12.9372428 C25.595723,11.6409465 26.0947047,10.4166667 26.8279022,9.31584362 C27.092668,8.91460905 27.0417515,8.36934156 26.7057026,8.02983539 L25.4327902,6.74382716 C25.392057,6.7026749 25.3818737,6.66152263 25.3818737,6.63065844 C25.3818737,6.59979424 25.392057,6.55864198 25.4327902,6.51748971 L26.8177189,5.11831276 C26.8584521,5.07716049 26.8991853,5.06687243 26.9297352,5.06687243 C26.9602851,5.06687243 27.0010183,5.07716049 27.0417515,5.11831276 L28.314664,6.40432099 C28.6507128,6.74382716 29.1904277,6.80555556 29.5875764,6.52777778 C30.6771894,5.78703704 31.889002,5.28292181 33.1720978,5.02572016 C33.6405295,4.93312757 33.9867617,4.51131687 33.9867617,4.02777778 L33.9867617,2.22736626 C33.9867617,2.13477366 34.0580448,2.0627572 34.1496945,2.0627572 L36.1150713,2.0627572 C36.206721,2.0627572 36.2780041,2.13477366 36.2780041,2.22736626 L36.2780041,4.04835391 C36.2780041,4.531893 36.614053,4.9537037 37.092668,5.0462963 C38.3757637,5.30349794 39.5875764,5.80761317 40.6771894,6.54835391 Z" id="Shape"></path>
                <path d="M29.1598778,14.9228395 C29.1598778,18.2561728 31.8482688,20.9722222 35.1476578,20.9722222 C38.4470468,20.9722222 41.1354379,18.2561728 41.1354379,14.9228395 C41.1354379,11.5895062 38.4470468,8.87345679 35.1476578,8.87345679 C31.8482688,8.87345679 29.1598778,11.5895062 29.1598778,14.9228395 Z M39.1089613,14.9228395 C39.1089613,17.1347737 37.3268839,18.9351852 35.1374745,18.9351852 C32.9480652,18.9351852 31.1659878,17.1347737 31.1659878,14.9228395 C31.1659878,12.7109053 32.9480652,10.9104938 35.1374745,10.9104938 C37.3268839,10.9104938 39.1089613,12.7211934 39.1089613,14.9228395 Z" id="Shape"></path>
            </g>
        </g>
    </g>
</svg>